<svg width="16" height="16" viewBox="0 0 16 16" fill="none" xmlns="http://www.w3.org/2000/svg">
<path d="M8.07608 10.5555C8.03018 9.73957 7.86956 9.29664 7.86956 9.29664C7.60532 8.53109 6.95709 8.16836 6.28622 8.15782C5.38409 8.14364 4.44102 8.76633 4.33574 9.90275V13.3995C4.33574 14.1922 2.89009 14.3787 2.75241 13.3995V7.96786H0.916656L7.98429 2L15.1667 7.96786H13.1473V13.3995C13.1473 14.2388 11.6787 14.3087 11.6787 13.3995V10.5555C11.6787 10.2411 11.548 9.96495 11.3433 9.73957M5.39129 9.90275C6.12559 11.6278 8.07608 12.0708 8.07608 12.0708V12.8867C8.07608 13.5394 7.66303 13.9357 7.04347 13.9823C6.4239 14.029 6.63042 13.9823 5.04709 13.9823M10.8985 13.9823H8.55796M8.39733 9.73957C8.39733 9.73957 8.75891 9.14734 9.59057 9.11015C10.1508 9.01529 10.9116 9.26457 11.3433 9.73957M8.39733 12.0708C10.3937 12.2573 11.3433 9.73957 11.3433 9.73957" stroke="url(#paint0_linear_203_24)" stroke-width="0.3" stroke-linecap="round"/>
<mask id="path-2-inside-1_203_24" fill="white">
<ellipse cx="6.28623" cy="6.91883" rx="1.1244" ry="1.1656"/>
</mask>
<path d="M7.41063 6.91883H5.41063C5.41063 6.52646 5.73542 6.08443 6.28623 6.08443V8.08443V10.0844C8.07902 10.0844 9.41063 8.59869 9.41063 6.91883H7.41063ZM6.28623 8.08443V6.08443C6.83704 6.08443 7.16183 6.52646 7.16183 6.91883H5.16183H3.16183C3.16183 8.59869 4.49344 10.0844 6.28623 10.0844V8.08443ZM5.16183 6.91883H7.16183C7.16183 7.31121 6.83704 7.75323 6.28623 7.75323V5.75323V3.75323C4.49344 3.75323 3.16183 5.23897 3.16183 6.91883H5.16183ZM6.28623 5.75323V7.75323C5.73542 7.75323 5.41063 7.31121 5.41063 6.91883H7.41063H9.41063C9.41063 5.23897 8.07902 3.75323 6.28623 3.75323V5.75323Z" fill="#0051FF" mask="url(#path-2-inside-1_203_24)"/>
<mask id="path-4-inside-2_203_24" fill="white">
<ellipse cx="9.77415" cy="7.85127" rx="1.1244" ry="1.1656"/>
</mask>
<path d="M10.8985 7.85127H8.89854C8.89854 7.45889 9.22333 7.01687 9.77415 7.01687V9.01687V11.0169C11.5669 11.0169 12.8985 9.53113 12.8985 7.85127H10.8985ZM9.77415 9.01687V7.01687C10.325 7.01687 10.6497 7.45889 10.6497 7.85127H8.64975H6.64975C6.64975 9.53113 7.98136 11.0169 9.77415 11.0169V9.01687ZM8.64975 7.85127H10.6497C10.6497 8.24364 10.325 8.68567 9.77415 8.68567V6.68567V4.68567C7.98136 4.68567 6.64975 6.17141 6.64975 7.85127H8.64975ZM9.77415 6.68567V8.68567C9.22333 8.68567 8.89854 8.24364 8.89854 7.85127H10.8985H12.8985C12.8985 6.17141 11.5669 4.68567 9.77415 4.68567V6.68567Z" fill="#00FF44" mask="url(#path-4-inside-2_203_24)"/>
<defs>
<linearGradient id="paint0_linear_203_24" x1="1.68081" y1="2" x2="12.2284" y2="12.1141" gradientUnits="userSpaceOnUse">
<stop stop-color="#0095FF"/>
<stop offset="0.394231" stop-color="#2802FF"/>
<stop offset="0.736744" stop-color="#00FF59"/>
</linearGradient>
</defs>
</svg>
